<?xml version="1.0" standalone="no"?>
<!DOCTYPE svg PUBLIC "-//W3C//DTD SVG 20010904//EN"
 "http://www.w3.org/TR/2001/REC-SVG-20010904/DTD/svg10.dtd">
<svg version="1.0" xmlns="http://www.w3.org/2000/svg"
 width="500.000000pt" height="500.000000pt" viewBox="0 0 500.000000 500.000000"
 preserveAspectRatio="xMidYMid meet">

<g transform="translate(0.000000,500.000000) scale(0.100000,-0.100000)"
fill="#000000" stroke="none">
<path d="M2095 3646 c-166 -53 -259 -174 -258 -337 1 -133 69 -241 191 -301
61 -30 74 -33 162 -33 89 0 101 2 161 33 l65 33 112 -34 c62 -19 112 -30 112
-26 0 5 -25 49 -55 97 -58 94 -62 107 -44 179 14 54 -1 154 -31 212 -75 142
-266 224 -415 177z m190 -130 c180 -83 169 -333 -18 -411 -116 -48 -253 21
-293 149 -15 49 -16 64 -6 104 19 70 59 122 121 154 67 35 127 37 196 4z"/>
<path d="M2790 3346 c0 -288 0 -294 23 -327 27 -41 67 -65 92 -55 16 6 17 15
11 74 -3 37 -6 187 -6 335 l0 267 -60 0 -60 0 0 -294z"/>
<path d="M1358 3038 l-45 -53 -48 25 c-59 30 -114 31 -232 2 -45 -11 -90 -19
-100 -17 -10 2 -58 14 -106 26 -48 12 -90 19 -92 17 -2 -2 4 -18 15 -35 15
-25 27 -33 57 -36 33 -3 32 -4 -12 -5 -35 -1 -66 6 -102 23 -29 13 -55 20 -58
15 -3 -5 -1 -27 4 -50 21 -94 115 -178 185 -164 20 3 36 3 36 -1 0 -4 -14 -23
-30 -42 -17 -18 -30 -39 -30 -45 0 -7 19 -32 42 -55 23 -24 37 -43 31 -43 -16
0 -62 39 -113 94 l-45 48 -105 -7 c-172 -13 -348 -10 -415 8 -33 8 -79 18
-102 22 -38 6 -41 5 -36 -13 8 -30 76 -92 119 -107 35 -13 36 -14 12 -15 -35
0 -35 -9 0 -42 25 -25 80 -51 127 -61 12 -3 6 -5 -14 -6 -30 -1 -32 -3 -20
-17 8 -9 32 -28 54 -42 34 -22 51 -26 115 -26 46 0 96 7 128 18 29 10 56 16
58 13 8 -8 -96 -40 -156 -47 l-55 -7 49 -22 c60 -28 129 -23 195 15 30 17 39
19 30 8 -27 -32 -111 -64 -171 -64 -51 0 -59 -3 -84 -32 -37 -45 -61 -101 -76
-182 -12 -62 -15 -68 -41 -73 -18 -4 -40 -21 -57 -44 -28 -39 -28 -39 -34 -14
-7 27 -42 35 -64 13 -17 -17 -15 -55 4 -62 25 -9 27 -8 20 19 -9 37 8 30 39
-15 19 -28 35 -40 51 -40 21 0 24 5 24 34 0 28 4 35 27 41 19 4 34 1 52 -13
31 -23 40 -89 18 -141 -19 -45 -102 -128 -143 -143 -23 -8 -37 -21 -44 -42 -6
-16 -18 -38 -27 -48 -27 -30 -7 -32 59 -5 35 14 113 33 173 42 187 28 265 44
303 62 55 26 120 95 127 136 8 41 2 134 -9 160 -5 9 -4 17 1 17 19 0 33 -52
33 -120 0 -82 6 -85 92 -46 107 48 224 183 283 326 19 48 27 85 28 140 2 89 5
93 131 170 101 62 117 78 94 91 -15 8 -15 12 -1 39 8 17 13 38 11 47 -3 14
-10 11 -43 -18 -78 -70 -158 -96 -275 -90 -38 3 -41 4 -20 11 14 4 43 8 65 9
93 3 171 49 200 118 12 28 45 167 45 188 0 4 -17 -3 -37 -15 -32 -18 -22 -5
12 18 21 14 75 97 75 115 0 10 -15 34 -34 53 -26 26 -43 34 -69 34 -29 0 -41
-8 -79 -52z m-454 -87 c4 -5 -3 -7 -14 -4 -23 6 -26 13 -6 13 8 0 17 -4 20 -9z
m316 -46 c18 -22 -4 -44 -38 -40 -15 2 -36 4 -46 4 -18 1 -18 3 4 26 26 28 61
32 80 10z m-877 -282 c-24 -2 -62 -2 -86 0 -23 2 -4 4 43 4 47 0 66 -2 43 -4z
m230 -10 c-7 -2 -19 -2 -25 0 -7 3 -2 5 12 5 14 0 19 -2 13 -5z m-106 -89 c-3
-3 -12 -4 -19 -1 -8 3 -5 6 6 6 11 1 17 -2 13 -5z"/>
<path d="M270 2953 c0 -44 51 -121 100 -153 63 -40 155 -63 201 -50 59 17 138
12 166 -10 32 -25 55 -25 70 -1 10 16 7 20 -30 31 -23 7 -53 16 -67 21 -14 4
-72 20 -129 34 -108 27 -176 54 -226 91 -16 12 -42 29 -57 39 -27 17 -28 17
-28 -2z"/>
<path d="M350 2760 c8 -15 21 -20 52 -20 47 0 44 8 -10 27 -50 17 -55 16 -42
-7z"/>
<path d="M2085 2656 c-77 -32 -146 -104 -171 -178 -20 -62 -22 -173 -4 -238
44 -160 248 -262 411 -205 51 18 136 74 144 94 16 40 -76 53 -164 22 -100 -34
-193 -8 -248 72 -49 71 -42 211 14 277 57 69 164 90 244 50 62 -32 140 -28
154 8 4 11 -2 23 -17 35 -13 10 -30 24 -38 30 -43 35 -98 52 -180 54 -72 3
-94 0 -145 -21z"/>
<path d="M2603 2673 c-10 -4 -13 -78 -13 -324 0 -297 1 -319 18 -319 21 0 67
30 87 56 10 13 14 46 15 106 l0 86 95 4 c53 1 118 1 145 0 l50 -4 0 -84 c0
-94 13 -124 61 -150 62 -32 60 -46 57 309 l-3 322 -57 3 c-67 3 -60 23 -59
-156 0 -57 -3 -110 -6 -118 -4 -11 -31 -14 -138 -14 l-133 0 -7 39 c-4 22 -6
81 -5 133 1 51 2 99 1 106 -1 12 -81 16 -108 5z"/>
<path d="M3274 2665 c-3 -8 -4 -133 -2 -277 4 -294 7 -309 70 -343 20 -11 39
-17 42 -14 4 4 9 466 6 622 0 26 -2 27 -55 27 -40 0 -57 -4 -61 -15z"/>
<path d="M3567 2673 c-4 -3 -7 -150 -7 -326 l0 -319 28 7 c30 7 58 29 75 60 7
12 14 90 17 195 l5 175 65 -95 c36 -52 84 -126 108 -165 24 -38 56 -83 70 -99
31 -32 116 -76 150 -76 l22 0 -2 323 -3 322 -55 0 -55 0 -3 -217 c-1 -120 -6
-218 -10 -218 -6 0 -133 187 -272 402 -23 36 -27 38 -76 38 -28 0 -54 -3 -57
-7z"/>
<path d="M4429 2643 c-7 -21 -60 -167 -119 -325 l-107 -288 35 0 c52 0 98 33
118 85 l17 45 128 0 129 0 16 -40 c23 -57 66 -90 116 -90 34 0 39 3 33 18 -4
9 -41 107 -82 217 -133 356 -146 390 -156 403 -5 7 -32 12 -62 12 -53 0 -54 0
-66 -37z m122 -238 c21 -61 38 -118 39 -127 0 -16 -11 -18 -90 -18 -49 0 -90
3 -90 8 0 24 85 252 93 249 5 -1 27 -52 48 -112z"/>
<path d="M328 1940 c-21 -30 -35 -40 -54 -40 -18 0 -43 -15 -75 -45 -26 -25
-53 -45 -59 -45 -5 0 -10 -9 -10 -20 0 -24 -2 -24 46 -4 32 14 46 14 96 4 52
-11 60 -11 77 5 46 40 65 130 37 168 -19 25 -28 21 -58 -23z"/>
<path d="M1910 1840 c0 -7 492 -10 1456 -10 967 0 1453 3 1449 10 -9 14 -2905
14 -2905 0z"/>
<path d="M3847 1673 c-4 -3 -7 -21 -7 -40 0 -18 -5 -33 -11 -33 -8 0 -8 -4 -1
-13 6 -7 13 -42 15 -77 l3 -65 2 66 c1 36 7 70 14 77 9 9 9 12 -1 12 -9 0 -12
12 -9 40 2 22 3 40 2 40 0 0 -4 -3 -7 -7z"/>
<path d="M2002 1589 c-2 -74 1 -90 19 -113 11 -14 25 -26 31 -26 6 0 0 9 -13
19 -21 17 -24 30 -30 112 l-6 94 -1 -86z"/>
<path d="M2170 1579 c0 -44 -5 -90 -11 -102 -10 -21 -10 -21 5 -3 12 14 16 43
16 103 0 46 -2 83 -5 83 -3 0 -5 -36 -5 -81z"/>
<path d="M4439 1609 c-1 -8 0 -43 1 -79 2 -64 12 -90 34 -90 6 0 3 5 -7 11
-16 9 -18 22 -16 84 2 41 0 77 -4 81 -4 4 -8 1 -8 -7z"/>
<path d="M2438 1582 c9 -10 19 -14 21 -9 2 5 -3 13 -10 18 -24 15 -30 10 -11
-9z"/>
<path d="M2986 1587 c-11 -8 -16 -21 -13 -33 4 -17 5 -17 6 3 1 14 11 25 29
31 15 6 20 11 11 11 -8 1 -23 -5 -33 -12z"/>
<path d="M3136 1584 c-9 -8 -16 -19 -16 -23 0 -15 39 -43 52 -38 9 4 8 6 -3 6
-9 1 -22 8 -29 16 -10 13 -10 19 5 35 21 24 13 27 -9 4z"/>
<path d="M3328 1593 c6 -2 18 -2 25 0 6 3 1 5 -13 5 -14 0 -19 -2 -12 -5z"/>
<path d="M3615 1593 c11 -3 27 -10 35 -17 13 -10 13 -9 1 7 -7 9 -23 16 -35
16 -20 -1 -20 -2 -1 -6z"/>
<path d="M3990 1589 c0 -5 5 -7 10 -4 6 3 10 8 10 11 0 2 -4 4 -10 4 -5 0 -10
-5 -10 -11z"/>
<path d="M4307 1593 c33 -6 42 -23 46 -88 l3 -60 2 67 c2 57 -1 69 -17 78 -11
5 -28 9 -38 9 -14 -1 -13 -3 4 -6z"/>
<path d="M2253 1525 c0 -38 2 -53 4 -32 2 20 2 52 0 70 -2 17 -4 1 -4 -38z"/>
<path d="M2347 1569 c4 -13 8 -18 11 -10 2 7 -1 18 -6 23 -8 8 -9 4 -5 -13z"/>
<path d="M2630 1485 c0 -60 3 -106 6 -102 7 7 6 198 -1 205 -3 3 -5 -43 -5
-103z"/>
<path d="M2735 1565 c19 -38 19 -53 -1 -90 -14 -27 -14 -29 1 -14 27 26 30 81
6 109 l-21 25 15 -30z"/>
<path d="M2892 1576 c7 -8 15 -12 17 -11 5 6 -10 25 -20 25 -5 0 -4 -6 3 -14z"/>
<path d="M3286 1568 c-9 -12 -15 -36 -15 -53 1 -28 2 -28 8 7 4 20 13 44 21
52 7 9 10 16 7 16 -3 0 -13 -10 -21 -22z"/>
<path d="M3383 1572 c10 -10 17 -27 18 -38 0 -12 3 -14 6 -6 6 16 -16 62 -30
62 -6 0 -3 -8 6 -18z"/>
<path d="M3940 1578 c0 -7 5 -20 10 -28 8 -13 10 -12 10 3 0 9 0 20 1 24 0 4
-4 9 -10 11 -6 2 -11 -2 -11 -10z"/>
<path d="M4150 1586 c0 -2 8 -10 18 -17 15 -13 16 -12 3 4 -13 16 -21 21 -21
13z"/>
<path d="M4242 1518 l2 -73 3 65 c2 35 9 68 16 72 8 5 6 8 -5 8 -16 0 -18 -9
-16 -72z"/>
<path d="M4658 1545 c-3 -14 -1 -25 3 -25 5 0 9 11 9 25 0 14 -2 25 -4 25 -2
0 -6 -11 -8 -25z"/>
<path d="M4060 1537 c0 -10 8 -17 18 -17 9 0 13 4 7 8 -5 4 -13 11 -17 16 -5
5 -8 2 -8 -7z"/>
<path d="M4546 1543 c-8 -8 -8 -43 0 -43 3 0 11 6 18 13 10 10 10 15 1 24 -7
7 -16 9 -19 6z"/>
<path d="M2895 1530 c-3 -5 -2 -10 4 -10 5 0 13 5 16 10 3 6 2 10 -4 10 -5 0
-13 -4 -16 -10z"/>
<path d="M2998 1528 c5 -5 16 -8 23 -6 8 3 3 7 -10 11 -17 4 -21 3 -13 -5z"/>
<path d="M3635 1530 c-19 -8 -19 -9 3 -9 12 -1 22 4 22 9 0 6 -1 10 -2 9 -2 0
-12 -4 -23 -9z"/>
<path d="M4155 1530 c-19 -8 -19 -9 3 -9 12 -1 22 4 22 9 0 6 -1 10 -2 9 -2 0
-12 -4 -23 -9z"/>
<path d="M3940 1521 c0 -6 5 -13 10 -16 6 -3 10 1 10 9 0 9 -4 16 -10 16 -5 0
-10 -4 -10 -9z"/>
<path d="M3208 1510 c15 -17 16 -46 2 -53 -6 -3 -5 -4 2 -3 20 4 21 41 1 56
-15 12 -16 12 -5 0z"/>
<path d="M3562 1508 c-14 -14 -16 -44 -3 -52 5 -4 7 3 4 14 -3 11 0 27 7 35
15 18 9 20 -8 3z"/>
<path d="M2807 1503 c-13 -13 -7 -51 9 -57 14 -5 15 -4 4 9 -7 8 -10 24 -7 35
5 21 4 24 -6 13z"/>
<path d="M3067 1489 c4 -13 8 -18 11 -10 2 7 -1 18 -6 23 -8 8 -9 4 -5 -13z"/>
<path d="M2900 1474 c0 -14 4 -23 10 -19 6 3 10 15 10 26 0 10 -4 19 -10 19
-5 0 -10 -12 -10 -26z"/>
<path d="M3391 1474 c-12 -27 -11 -28 4 -12 10 9 16 21 13 28 -2 7 -10 -1 -17
-16z"/>
<path d="M4061 1489 c-1 -9 7 -23 17 -30 15 -12 16 -12 6 1 -6 8 -14 22 -17
30 -5 13 -6 12 -6 -1z"/>
<path d="M4550 1484 c0 -13 18 -39 24 -34 2 3 -2 14 -10 24 -8 11 -14 16 -14
10z"/>
<path d="M3280 1476 c0 -2 8 -10 18 -17 15 -13 16 -12 3 4 -13 16 -21 21 -21
13z"/>
<path d="M3945 1471 c-3 -5 -1 -12 5 -16 5 -3 10 1 10 9 0 18 -6 21 -15 7z"/>
</g>
</svg>
